<svg width="35" height="35" viewBox="0 0 35 35" fill="none" xmlns="http://www.w3.org/2000/svg">
<circle cx="17.5" cy="17.5" r="17" fill="#F5DA81" stroke="black"/>
<path d="M16.5 19.5583V26.5707L11.2424 21.3131L11.096 21.1667H10.8889H6.5V14.8333H11.775H12.9821L12.1286 13.9798L6.70711 8.55833L7.55833 7.70711L16.6464 16.7952L27.2929 27.4417L26.4412 28.2933L24.3015 26.1588L23.9812 25.8393L23.6313 26.1261C22.5585 27.0057 21.309 27.6767 19.9444 28.0778V26.5638C20.8846 26.2334 21.7411 25.7427 22.5053 25.1553L22.9569 24.8081L22.5541 24.4053L17.3536 19.2048L16.5 18.3512V19.5583ZM19.9444 13.9668C21.093 14.8038 21.8709 16.1169 21.9854 17.6155L19.9444 15.5746V13.9668ZM25.4804 21.1044C25.8387 20.1425 26.0556 19.1024 26.0556 18C26.0556 14.0298 23.4978 10.6613 19.9444 9.44029V7.92703C24.3078 9.20027 27.5 13.2281 27.5 18C27.5 19.5045 27.1766 20.9317 26.6029 22.2269L25.4804 21.1044ZM16.5 12.124L15.1527 10.7767L16.5 9.42933V12.124Z" fill="#B40025" stroke="black"/>
</svg>
